<?xml version="1.0" encoding="UTF-8"?>
<svg width="32px" height="30px" viewBox="0 0 32 30" version="1.1" xmlns="http://www.w3.org/2000/svg" xmlns:xlink="http://www.w3.org/1999/xlink">
    <title>star</title>
    <g id="Page-1" stroke="none" stroke-width="1" fill="none" fill-rule="evenodd">
        <g id="2" transform="translate(-149.000000, -263.000000)" fill="#FFFFFF" fill-rule="nonzero">
            <g id="Group-4" transform="translate(140.000000, 168.000000)">
                <g id="Group-Copy" transform="translate(0.000000, 85.000000)">
                    <g id="favourites-filled-star-symbol" transform="translate(9.000000, 10.000000)">
                        <path d="M30.6077244,10.2279841 L21.7954424,9.40575886 C21.2399245,9.35592703 20.7599065,9.00710418 20.5329016,8.48386991 L17.3765497,0.934346907 C16.8715334,-0.311448969 15.0784731,-0.311448969 14.5734568,0.934346907 L11.4423557,8.48386991 C11.2403492,9.00710418 10.7353329,9.35592703 10.1798149,9.40575886 L1.36728044,10.2279841 C0.0542380582,10.3525637 -0.476029059,11.9720984 0.50875273,12.8441555 L7.14971711,18.5997324 C7.57898097,18.9734712 7.75573667,19.5216214 7.6294826,20.0697716 L5.6346682,28.1422797 C5.33165842,29.4132406 6.72045325,30.45946 7.88199075,29.7869794 L15.2299779,25.5261083 C15.7097434,25.2520332 16.2905122,25.2520332 16.7702777,25.5261083 L24.1185174,29.7869794 C25.2800549,30.45946 26.6688497,29.4381565 26.3655874,28.1422797 L24.3960238,20.0697716 C24.2697698,19.5216214 24.4465255,18.9734712 24.8757893,18.5997324 L31.5167537,12.8441555 C32.4762847,11.9720984 31.9207667,10.3525637 30.6077244,10.2279841 Z" id="star"></path>
                    </g>
                </g>
            </g>
        </g>
    </g>
</svg>